<svg xmlns="http://www.w3.org/2000/svg" viewBox="0 0 32 32" width="32" height="32">
  <defs>
    <linearGradient id="grad1" x1="0%" y1="0%" x2="100%" y2="100%">
      <stop offset="0%" style="stop-color:#8b5cf6;stop-opacity:1" />
      <stop offset="50%" style="stop-color:#ec4899;stop-opacity:1" />
      <stop offset="100%" style="stop-color:#3b82f6;stop-opacity:1" />
    </linearGradient>
    <filter id="shadow" x="-20%" y="-20%" width="140%" height="140%">
      <feDropShadow dx="0" dy="2" stdDeviation="1" flood-color="#1e293b" flood-opacity="0.3"/>
    </filter>
  </defs>
  
  <!-- Círculo de fundo com gradiente -->
  <circle cx="16" cy="16" r="15" fill="url(#grad1)" filter="url(#shadow)"/>
  
  <!-- Símbolo de moeda estilizado -->
  <path d="M16 6c-5.5 0-10 4.5-10 10s4.5 10 10 10 10-4.5 10-10-4.5-10-10-10zm0 18c-4.4 0-8-3.6-8-8s3.6-8 8-8 8 3.6 8 8-3.6 8-8 8z" fill="white" opacity="0.95"/>
  
  <!-- Linha central da moeda -->
  <path d="M16 8v16" stroke="white" stroke-width="2" stroke-linecap="round" opacity="0.9"/>
  
  <!-- Símbolo de cifrão estilizado -->
  <path d="M12 12h8M12 20h8" stroke="white" stroke-width="2" stroke-linecap="round" opacity="0.9"/>
  
  <!-- Pontos decorativos -->
  <circle cx="12" cy="12" r="1.5" fill="white" opacity="0.8"/>
  <circle cx="20" cy="12" r="1.5" fill="white" opacity="0.8"/>
  <circle cx="12" cy="20" r="1.5" fill="white" opacity="0.8"/>
  <circle cx="20" cy="20" r="1.5" fill="white" opacity="0.8"/>
</svg>
